<?xml version="1.0" encoding="UTF-8" standalone="no"?>
<!-- Created with Inkscape (http://www.inkscape.org/) -->

<svg
   version="1.1"
   id="svg1"
   width="571.25476"
   height="745.15521"
   viewBox="0 0 571.25476 745.15521"
   xmlns="http://www.w3.org/2000/svg"
   xmlns:svg="http://www.w3.org/2000/svg">
  <defs
     id="defs1" />
  <g
     id="g1"
     transform="translate(-226.15652,-138.92487)">
    <path
       style="fill:#557a97;stroke:none"
       d="m 325,139.42822 c -13.4093,1.92536 -27.17041,8.42462 -34.1196,20.57178 -3.81262,6.66449 -6.03369,17.53741 3.13504,21.10571 6.92978,2.6969 15.35864,-2.59717 21.98456,-4.34955 10.2373,-2.70745 20.3519,-1.82421 30,2.55634 8.95377,4.06531 16.17703,10.91968 22.10107,18.6875 3.55585,4.66254 7.83365,11.86389 14.88349,10.47302 C 396.49609,205.80731 386.7894,179.09729 383.24075,172 372.63678,150.79199 349.14645,135.96112 325,139.42822 m 361,0 c -21.92914,3.14167 -39.16974,17.20691 -47.71527,37.57178 -3.05695,7.28503 -9.85736,32.4201 4.71606,31.591 11.2768,-0.6416 16.91565,-16.71179 24.99921,-23.07324 10.21362,-8.03772 23.15015,-12.11749 36,-9.51391 8.47998,1.7182 22.15515,10.22241 29.58105,2.60186 6.29706,-6.46216 1.19416,-16.75714 -3.48077,-22.51623 C 719.9801,143.62244 701.8045,137.164 686,139.42822 m -435,66.22455 c -15.27301,4.78943 -12.79102,23.75983 -1.99614,31.55786 12.40611,8.96198 30.14983,8.09345 43.99614,3.43366 8.76706,-2.95044 17.55411,-7.91663 23.94522,-14.65894 2.22934,-2.35187 5.67004,-6.19592 3.21835,-9.5517 -3.07913,-4.21459 -12.65103,-2.41271 -17.16357,-2.43444 -10.44153,-0.0504 -21.02115,-2.50855 -31,-5.42359 -6.61514,-1.93243 -14.02661,-5.10962 -21,-2.92285 m 511,-0.13501 c -14.23035,3.0177 -27.23047,7.79614 -42,8.44287 -4.15167,0.18177 -13.31268,-1.72259 -15.95288,2.47302 -3.34186,5.31061 6.55127,12.29603 9.95367,14.88965 C 727.16467,241.35803 745.73566,246.30463 762,242.78857 770.5788,240.93402 778.99652,236.4259 782.63269,228 788.89594,213.48657 775.8385,202.58313 762,205.51776 m -384,18.92127 c -16.84283,1.79882 -32.34979,3.64917 -48,10.87042 -38.15347,17.60461 -66.1185,59.62573 -67.96063,101.69055 -0.70136,16.01538 1.76867,31.76471 6.70599,47 2.12372,6.55328 6.6221,13.19513 7.63196,20 2.45486,16.54181 -24.49223,40.88904 -9.16357,55.77161 4.82904,4.68853 11.82458,3.15167 17.78625,2.14734 13.74417,-2.31543 27.27539,-7.65809 41,-9.41504 7.95474,-1.01831 16.43359,4.91845 24,6.86645 13.83246,3.56128 28.74399,4.81757 43,3.4599 C 451.78357,457.23199 497.8537,411.2395 501.91049,352 506.44427,285.79529 447.71463,216.99341 378,224.43903 m 252,0.98614 c -25.53973,3.47669 -49.57672,12.26422 -69,29.74536 -50.0498,45.04529 -51.4202,126.40155 -3.99615,173.82562 25.5982,25.59821 64.13751,38.00715 99.99615,33.71833 12.91522,-1.54468 26.56946,-10.1391 39,-10.35565 17.91852,-0.31214 35.57971,13.30786 54,10.42742 8.49799,-1.32885 12.12518,-10.02453 10.48224,-17.78625 -2.87091,-13.56293 -17.12793,-31.00238 -11.8634,-45 7.80682,-20.75702 15.3728,-41.30457 13.21142,-64 C 755.56885,270.25342 697.78418,216.19781 630,225.42517 M 370,254.28625 C 446.07855,244.94281 502.00092,332.04407 457.22916,396 450.02429,406.29205 440.61575,414.70056 430,421.31561 c -10.508,6.54785 -22.7038,10.86829 -35,12.39814 -12.74316,1.58544 -25.57361,1.10791 -38,-2.42365 -9.6322,-2.73749 -18.64474,-8.83185 -29,-8.19598 -5.186,0.31848 -23.54437,9.3764 -26.96838,5.26312 -2.1908,-2.63184 0.0504,-7.66132 1.0224,-10.35724 2.60611,-7.22852 5.3623,-14.2182 3.42746,-22.01465 C 301.5148,380.00165 292.26288,367.11755 291.08951,350 287.86731,302.99329 323.30719,260.02075 370,254.28625 m 261,0 c 70.88239,-8.70526 123.9668,66.11023 92.24689,129.71375 -7.29755,14.63275 -5.39441,21.99469 -0.60572,37 0.85737,2.68646 2.39423,7.85553 -1.7893,8.49768 -9.01251,1.38336 -19.01691,-7.19348 -28.85187,-6.3233 -11.62915,1.02887 -22.41986,7.84375 -34,10.0216 -26.6236,5.00708 -56.92389,-2.68188 -77,-21.28625 -56.08124,-51.97003 -27.07465,-148.15772 50,-157.62348 m -256,51.15278 c -52.08127,8.20129 -37.51141,86.68719 14,79.2608 51.70441,-7.45422 37.1264,-87.31171 -14,-79.2608 m 261,0 c -52.54974,8.27154 -39.09796,86.77179 13,79.2608 51.44025,-7.41614 38.13373,-87.30951 -13,-79.2608 M 489,424.53241 c -27.93399,6.65729 2.09705,43.2962 9.39969,55.46759 3.35229,5.58728 7.35342,15.72241 15.58487,13.56171 5.66107,-1.48597 8.48675,-9.04132 11.3341,-13.56171 7.46454,-11.85071 29.36579,-36.06146 19.03241,-49.95605 -2.77069,-3.72559 -6.80035,-5.57538 -11.35107,-5.95057 -13.02625,-1.07385 -31.28763,-2.59063 -44,0.43903 m -159,53.89197 c -18.01968,2.39508 -35.36752,6.99182 -51,16.64044 C 229.90164,525.3692 214.62827,587.90344 234.81096,640 253.08521,687.17041 294.53497,723.51501 334,753.12659 c 20.84705,15.64196 42.65854,29.86853 65,43.27307 7.91205,4.74719 18.13531,13.63739 27.99615,9.59106 9.12491,-3.74426 11.20948,-15.86987 4.7793,-22.88653 C 420.05756,770.31738 398.50864,761.67242 384,752 373.15393,744.76929 362.43103,737.44983 352,729.62659 298.43161,689.45026 221.88687,618.45428 268.69907,546 c 38.69845,-59.89612 127.19754,-43.97723 169.12732,3 8.24795,9.24084 14.64682,21.21704 18.42746,33 2.10495,6.56042 2.02905,15.10547 5.75463,20.95679 3.40955,5.35492 10.9892,8.24548 16.98767,5.89428 9.13752,-3.58154 9.34803,-13.71759 7.91974,-21.85107 -3.15402,-17.96088 -9.98758,-36.2406 -20.80093,-51 C 436.90491,496.13043 379.32672,471.86816 330,478.42438 m 337,0 C 621.55328,484.4649 577.72662,503.35266 552.81097,544 c -8.28686,13.51917 -16.06677,30.90308 -16.7716,47 -0.36695,8.38037 2.27636,17.32275 11.96063,18.63116 5.90765,0.79816 12.01398,-2.47436 14.86035,-7.63501 2.91181,-5.27923 2.69892,-12.26654 4.48688,-17.99615 3.73608,-11.97266 9.2901,-23.27057 17.26849,-33 38.10297,-46.46545 122.84607,-64.32861 164.91974,-13 6.06934,7.40442 10.62445,15.98267 13.76935,25 24.50305,70.25763 -41.90332,129.86737 -92.30481,167.37036 -11.12982,8.2815 -22.4577,16.26886 -34,23.96301 -13.5022,9.00061 -34.94989,16.76069 -45.58105,28.87647 -6.78113,7.72815 -2.40802,21.11395 7.58105,23.39587 9.12299,2.08405 17.59894,-5.20727 25,-9.45605 20.66718,-11.86444 40.92407,-24.99268 60,-39.27625 C 727.87244,725.02289 776.80823,685.00623 792.57251,630 815.63867,549.5152 753.35669,466.94635 667,478.42438 M 421,629.65277 c -6.76984,2.11517 -10.98077,9.45758 -9.19678,16.34723 2.46826,9.53223 9.56293,18.49866 14.33567,27 4.59646,8.18738 8.7525,18.95563 15.23999,25.78625 3.76409,3.96314 10.45614,5.45435 15.62036,3.47144 6.72461,-2.58203 10.08426,-10.55102 8.21139,-17.25769 -1.71698,-6.14844 -5.86249,-11.4729 -8.90506,-17 -6.02835,-10.95105 -11.62634,-24.42212 -19.83413,-33.89197 -3.71219,-4.28296 -9.99683,-6.16577 -15.47144,-4.45526 m 173,-0.0803 c -4.71002,1.35144 -7.74762,5.38452 -10.12421,9.42749 -6.2138,10.57062 -18.3023,25.66626 -19.53473,38 -1.04876,10.49561 9.08484,17.1778 18.65894,14.42749 4.76715,-1.36938 7.55585,-5.38611 9.98535,-9.42749 6.14264,-10.21814 17.00702,-24.10272 18.8017,-36 C 613.39984,635.30841 604.91193,626.44165 594,629.57251 m -87,12 c -6.52551,1.87244 -10.74045,8.80792 -9.66742,15.42749 1.94605,12.005 15.77814,35.64435 24.77161,43.77161 3.58838,3.24279 9.26007,4.43359 13.89581,2.92517 7.08234,-2.30457 10.36212,-9.71564 8.91669,-16.69678 -1.03192,-4.98401 -4.3244,-9.60608 -6.77704,-14 C 531.88501,661.79492 523.66699,636.79004 507,641.57251 m -29,84.96143 C 471.00479,728.20068 466.21863,734.81628 467.21683,742 469.00558,754.87311 484.57837,784.19556 500,780.4668 506.68701,778.84998 511.50357,771.90442 510.63116,765 509.06216,752.58228 492.77878,723.01276 478,726.53394 M 456,833 c -14.53165,1.87665 -29.54254,8.42474 -37.89505,21 -6.26086,9.42615 -6.0076,25.66943 8.89505,25.40973 8.13565,-0.14179 11.06573,-7.29791 16.09335,-12.31635 5.9104,-5.89965 15.3816,-10.41711 23.90665,-9.88043 8.52725,0.53681 16.92087,4.93976 22.90973,10.88043 7.84851,7.78528 13.06326,18.34912 26.09027,15.51618 8.64178,-1.87921 12.42212,-9.75263 18.09027,-15.5694 5.94824,-6.10431 14.30951,-10.34973 22.90973,-10.83032 8.5,-0.47492 17.10327,4.00323 22.96063,9.83032 6.45209,6.41864 11.39929,14.94653 22.02472,11.2569 C 612.22504,874.74139 611.086,862.40149 606.2392,855 597.89545,842.2583 582.80139,834.9115 568,833 c 0,-6.88074 2.05927,-17.77795 -1.31787,-23.95605 -4.5669,-8.35462 -18.1189,-7.43995 -22.02936,0.97149 C 541.34131,817.13837 544,826.41266 544,834 c -11.30713,0.98718 -26.08929,9.55688 -31,20 h -2 c -3.39563,-7.26147 -11.93323,-13.0896 -19,-16.62347 -3.36926,-1.68482 -8.836,-2.24506 -10.97223,-5.6543 -5.09448,-8.13043 3.91882,-20.37006 -6.07175,-26.71295 C 456.87506,793.52991 452.61826,821.55908 456,833 Z"
       id="path1" />
  </g>
</svg>
